<svg width="24" height="24" viewBox="0 0 24 24" fill="none" xmlns="http://www.w3.org/2000/svg">
<mask id="path-1-inside-1_56_1001" fill="white">
<path fill-rule="evenodd" clip-rule="evenodd" d="M12.5939 23.258L12.5819 23.26L12.5109 23.295L12.4909 23.299L12.4769 23.295L12.4059 23.259C12.3953 23.2563 12.3873 23.2583 12.3819 23.265L12.3779 23.275L12.3609 23.703L12.3659 23.723L12.3759 23.736L12.4799 23.81L12.4949 23.814L12.5069 23.81L12.6109 23.736L12.6229 23.72L12.6269 23.703L12.6099 23.276C12.6073 23.2653 12.6019 23.2593 12.5939 23.258ZM12.8579 23.145L12.8439 23.147L12.6599 23.24L12.6499 23.25L12.6469 23.261L12.6649 23.691L12.6699 23.703L12.6779 23.711L12.8789 23.803C12.8916 23.8063 12.9013 23.8037 12.9079 23.795L12.9119 23.781L12.8779 23.167C12.8746 23.1543 12.8679 23.147 12.8579 23.145ZM12.1429 23.147C12.1385 23.1443 12.1333 23.1435 12.1282 23.1446C12.1232 23.1457 12.1188 23.1487 12.1159 23.153L12.1099 23.167L12.0759 23.781C12.0766 23.793 12.0823 23.801 12.0929 23.805L12.1079 23.803L12.3089 23.71L12.3189 23.702L12.3219 23.691L12.3399 23.261L12.3369 23.249L12.3269 23.239L12.1429 23.147Z"/>
</mask>
<path d="M12.5939 23.258L12.7583 22.2716L12.5939 22.2442L12.4295 22.2716L12.5939 23.258ZM12.5819 23.26L12.4175 22.2736L12.272 22.2979L12.1398 22.3631L12.5819 23.26ZM12.5109 23.295L12.707 24.2756L12.8355 24.2499L12.9531 24.1919L12.5109 23.295ZM12.4909 23.299L12.2162 24.2605L12.4493 24.3271L12.687 24.2796L12.4909 23.299ZM12.4769 23.295L12.0247 24.1869L12.1101 24.2302L12.2022 24.2565L12.4769 23.295ZM12.4059 23.259L12.8582 22.3671L12.7577 22.3162L12.6485 22.2889L12.4059 23.259ZM12.3819 23.265L11.6011 22.6403L11.5085 22.756L11.4534 22.8936L12.3819 23.265ZM12.3779 23.275L11.4494 22.9036L11.3855 23.0634L11.3787 23.2353L12.3779 23.275ZM12.3609 23.703L11.3617 23.6633L11.356 23.8065L11.3908 23.9455L12.3609 23.703ZM12.3659 23.723L11.3958 23.9655L11.4463 24.1676L11.5733 24.3327L12.3659 23.723ZM12.3759 23.736L11.5833 24.3457L11.6744 24.4642L11.7962 24.5508L12.3759 23.736ZM12.4799 23.81L11.9002 24.6248L12.0475 24.7296L12.2223 24.7762L12.4799 23.81ZM12.4949 23.814L12.2373 24.7802L12.5268 24.8574L12.8111 24.7627L12.4949 23.814ZM12.5069 23.81L12.8231 24.7587L12.9649 24.7114L13.0867 24.6248L12.5069 23.81ZM12.6109 23.736L13.1907 24.5508L13.3175 24.4605L13.4109 24.336L12.6109 23.736ZM12.6229 23.72L13.4229 24.32L13.5484 24.1526L13.5963 23.949L12.6229 23.72ZM12.6269 23.703L13.6003 23.932L13.6316 23.7994L13.6261 23.6632L12.6269 23.703ZM12.6099 23.276L13.6091 23.2362L13.605 23.1333L13.5801 23.0335L12.6099 23.276ZM12.8579 23.145L13.054 22.1644L12.8861 22.1308L12.7166 22.155L12.8579 23.145ZM12.8439 23.147L12.7026 22.157L12.5397 22.1803L12.3928 22.2545L12.8439 23.147ZM12.6599 23.24L12.2088 22.3475L12.066 22.4197L11.9528 22.5329L12.6599 23.24ZM12.6499 23.25L11.9428 22.5429L11.755 22.7307L11.6851 22.9869L12.6499 23.25ZM12.6469 23.261L11.6822 22.9979L11.6413 23.1477L11.6478 23.3028L12.6469 23.261ZM12.6649 23.691L11.6658 23.7328L11.6733 23.911L11.7419 24.0756L12.6649 23.691ZM12.6699 23.703L11.7469 24.0876L11.8229 24.2702L11.9628 24.4101L12.6699 23.703ZM12.6779 23.711L11.9708 24.4181L12.0981 24.5454L12.2617 24.6203L12.6779 23.711ZM12.8789 23.803L12.4627 24.7123L12.5411 24.7481L12.6244 24.7701L12.8789 23.803ZM12.9079 23.795L13.7006 24.4047L13.817 24.2533L13.8695 24.0697L12.9079 23.795ZM12.9119 23.781L13.8735 24.0557L13.9197 23.8938L13.9104 23.7257L12.9119 23.781ZM12.8779 23.167L13.8764 23.1117L13.8708 23.0105L13.845 22.9125L12.8779 23.167ZM12.1429 23.147L11.6246 24.0022L11.6594 24.0233L11.6957 24.0414L12.1429 23.147ZM12.1159 23.153L11.2842 22.5978L11.2331 22.6744L11.1968 22.7591L12.1159 23.153ZM12.1099 23.167L11.1908 22.7731L11.1212 22.9354L11.1115 23.1117L12.1099 23.167ZM12.0759 23.781L11.0775 23.7257L11.0744 23.7811L11.0775 23.8365L12.0759 23.781ZM12.0929 23.805L11.7418 24.7413L11.9766 24.8294L12.2251 24.7962L12.0929 23.805ZM12.1079 23.803L12.2401 24.7942L12.3903 24.7742L12.5278 24.7106L12.1079 23.803ZM12.3089 23.71L12.7288 24.6176L12.8389 24.5666L12.9336 24.4909L12.3089 23.71ZM12.3189 23.702L12.9436 24.4829L13.198 24.2794L13.2837 23.9651L12.3189 23.702ZM12.3219 23.691L13.2867 23.9541L13.3163 23.8454L13.3211 23.7328L12.3219 23.691ZM12.3399 23.261L13.3391 23.3028L13.3451 23.1585L13.3101 23.0184L12.3399 23.261ZM12.3369 23.249L13.3071 23.0064L13.2399 22.7377L13.044 22.5419L12.3369 23.249ZM12.3269 23.239L13.034 22.5319L12.9193 22.4171L12.7741 22.3446L12.3269 23.239ZM12.5939 23.258L12.4295 22.2716L12.4175 22.2736L12.5819 23.26L12.7464 24.2464L12.7584 24.2444L12.5939 23.258ZM12.5819 23.26L12.1398 22.3631L12.0688 22.3981L12.5109 23.295L12.9531 24.1919L13.0241 24.1569L12.5819 23.26ZM12.5109 23.295L12.3148 22.3144L12.2948 22.3184L12.4909 23.299L12.687 24.2796L12.707 24.2756L12.5109 23.295ZM12.4909 23.299L12.7656 22.3375L12.7516 22.3335L12.4769 23.295L12.2022 24.2565L12.2162 24.2605L12.4909 23.299ZM12.4769 23.295L12.9292 22.4031L12.8582 22.3671L12.4059 23.259L11.9537 24.1509L12.0247 24.1869L12.4769 23.295ZM12.4059 23.259L12.6485 22.2889C12.5349 22.2605 12.3569 22.2365 12.1495 22.2883C11.9251 22.3444 11.7353 22.4724 11.6011 22.6403L12.3819 23.265L13.1628 23.8897C13.0338 24.0509 12.8507 24.1746 12.6344 24.2287C12.435 24.2785 12.2663 24.2549 12.1634 24.2291L12.4059 23.259ZM12.3819 23.265L11.4534 22.8936L11.4494 22.9036L12.3779 23.275L13.3064 23.6464L13.3104 23.6364L12.3819 23.265ZM12.3779 23.275L11.3787 23.2353L11.3617 23.6633L12.3609 23.703L13.3601 23.7427L13.3771 23.3147L12.3779 23.275ZM12.3609 23.703L11.3908 23.9455L11.3958 23.9655L12.3659 23.723L13.3361 23.4805L13.3311 23.4605L12.3609 23.703ZM12.3659 23.723L11.5733 24.3327L11.5833 24.3457L12.3759 23.736L13.1686 23.1263L13.1586 23.1133L12.3659 23.723ZM12.3759 23.736L11.7962 24.5508L11.9002 24.6248L12.4799 23.81L13.0597 22.9952L12.9557 22.9212L12.3759 23.736ZM12.4799 23.81L12.2223 24.7762L12.2373 24.7802L12.4949 23.814L12.7526 22.8478L12.7376 22.8438L12.4799 23.81ZM12.4949 23.814L12.8111 24.7627L12.8231 24.7587L12.5069 23.81L12.1907 22.8613L12.1787 22.8653L12.4949 23.814ZM12.5069 23.81L13.0867 24.6248L13.1907 24.5508L12.6109 23.736L12.0312 22.9212L11.9272 22.9952L12.5069 23.81ZM12.6109 23.736L13.4109 24.336L13.4229 24.32L12.6229 23.72L11.8229 23.12L11.8109 23.136L12.6109 23.736ZM12.6229 23.72L13.5963 23.949L13.6003 23.932L12.6269 23.703L11.6535 23.474L11.6495 23.491L12.6229 23.72ZM12.6269 23.703L13.6261 23.6632L13.6091 23.2362L12.6099 23.276L11.6107 23.3158L11.6277 23.7428L12.6269 23.703ZM12.6099 23.276L13.5801 23.0335C13.5218 22.8004 13.3023 22.3623 12.7583 22.2716L12.5939 23.258L12.4295 24.2444C12.2106 24.2079 12.0074 24.0976 11.8565 23.9279C11.7198 23.7741 11.6638 23.6148 11.6398 23.5185L12.6099 23.276ZM12.8579 23.145L12.7166 22.155L12.7026 22.157L12.8439 23.147L12.9853 24.137L12.9993 24.135L12.8579 23.145ZM12.8439 23.147L12.3928 22.2545L12.2088 22.3475L12.6599 23.24L13.111 24.1325L13.295 24.0395L12.8439 23.147ZM12.6599 23.24L11.9528 22.5329L11.9428 22.5429L12.6499 23.25L13.357 23.9571L13.367 23.9471L12.6599 23.24ZM12.6499 23.25L11.6851 22.9869L11.6822 22.9979L12.6469 23.261L13.6117 23.5241L13.6147 23.5131L12.6499 23.25ZM12.6469 23.261L11.6478 23.3028L11.6658 23.7328L12.6649 23.691L13.6641 23.6492L13.6461 23.2192L12.6469 23.261ZM12.6649 23.691L11.7419 24.0756L11.7469 24.0876L12.6699 23.703L13.593 23.3184L13.588 23.3064L12.6649 23.691ZM12.6699 23.703L11.9628 24.4101L11.9708 24.4181L12.6779 23.711L13.3851 23.0039L13.3771 22.9959L12.6699 23.703ZM12.6779 23.711L12.2617 24.6203L12.4627 24.7123L12.8789 23.803L13.2951 22.8937L13.0941 22.8017L12.6779 23.711ZM12.8789 23.803L12.6244 24.7701C12.7505 24.8033 12.9421 24.828 13.1616 24.7675C13.395 24.7031 13.5774 24.5647 13.7006 24.4047L12.9079 23.795L12.1153 23.1853C12.2317 23.0339 12.406 22.9012 12.6298 22.8395C12.8395 22.7816 13.02 22.8061 13.1334 22.8359L12.8789 23.803ZM12.9079 23.795L13.8695 24.0697L13.8735 24.0557L12.9119 23.781L11.9504 23.5063L11.9464 23.5203L12.9079 23.795ZM12.9119 23.781L13.9104 23.7257L13.8764 23.1117L12.8779 23.167L11.8795 23.2223L11.9135 23.8363L12.9119 23.781ZM12.8779 23.167L13.845 22.9125C13.7774 22.6554 13.5505 22.2637 13.054 22.1644L12.8579 23.145L12.6618 24.1256C12.4638 24.086 12.2753 23.984 12.1305 23.8247C11.9964 23.6772 11.9375 23.5227 11.9109 23.4215L12.8779 23.167ZM12.1429 23.147L12.6612 22.2918C12.4364 22.1555 12.1677 22.1114 11.9113 22.1684L12.1282 23.1446L12.3452 24.1208C12.0988 24.1755 11.8407 24.1331 11.6246 24.0022L12.1429 23.147ZM12.1282 23.1446L11.9113 22.1684C11.6548 22.2254 11.4302 22.3792 11.2842 22.5978L12.1159 23.153L12.9476 23.7082C12.8074 23.9183 12.5916 24.066 12.3452 24.1208L12.1282 23.1446ZM12.1159 23.153L11.1968 22.7591L11.1908 22.7731L12.1099 23.167L13.0291 23.5609L13.0351 23.5469L12.1159 23.153ZM12.1099 23.167L11.1115 23.1117L11.0775 23.7257L12.0759 23.781L13.0744 23.8363L13.1084 23.2223L12.1099 23.167ZM12.0759 23.781L11.0775 23.8365C11.0859 23.9878 11.1308 24.1851 11.2647 24.374C11.401 24.5665 11.5803 24.6808 11.7418 24.7413L12.0929 23.805L12.4441 22.8687C12.5949 22.9252 12.7661 23.0335 12.8967 23.218C13.0249 23.3989 13.0666 23.5862 13.0744 23.7255L12.0759 23.781ZM12.0929 23.805L12.2251 24.7962L12.2401 24.7942L12.1079 23.803L11.9757 22.8118L11.9607 22.8138L12.0929 23.805ZM12.1079 23.803L12.5278 24.7106L12.7288 24.6176L12.3089 23.71L11.889 22.8024L11.688 22.8954L12.1079 23.803ZM12.3089 23.71L12.9336 24.4909L12.9436 24.4829L12.3189 23.702L11.6943 22.9211L11.6843 22.9291L12.3089 23.71ZM12.3189 23.702L13.2837 23.9651L13.2867 23.9541L12.3219 23.691L11.3571 23.4279L11.3542 23.4389L12.3189 23.702ZM12.3219 23.691L13.3211 23.7328L13.3391 23.3028L12.3399 23.261L11.3408 23.2192L11.3228 23.6492L12.3219 23.691ZM12.3399 23.261L13.3101 23.0184L13.3071 23.0064L12.3369 23.249L11.3668 23.4916L11.3698 23.5036L12.3399 23.261ZM12.3369 23.249L13.044 22.5419L13.034 22.5319L12.3269 23.239L11.6198 23.9461L11.6298 23.9561L12.3369 23.249ZM12.3269 23.239L12.7741 22.3446L12.5901 22.2526L12.1429 23.147L11.6957 24.0414L11.8797 24.1334L12.3269 23.239Z" fill="white" mask="url(#path-1-inside-1_56_1001)"/>
<path d="M5 3.5H19C19.3978 3.5 19.7792 3.65815 20.0605 3.93945C20.3419 4.22076 20.5 4.60218 20.5 5V19C20.5 19.3978 20.3419 19.7792 20.0605 20.0605C19.7792 20.3419 19.3978 20.5 19 20.5H5C4.60218 20.5 4.22076 20.3419 3.93945 20.0605C3.65815 19.7792 3.5 19.3978 3.5 19V5C3.5 4.60218 3.65815 4.22076 3.93945 3.93945C4.22076 3.65815 4.60218 3.5 5 3.5ZM16.2432 7.58789C15.8952 7.58785 15.5599 7.70927 15.293 7.92773L15.1826 8.02734L10.5859 12.624L8.81836 10.8564C8.67915 10.7172 8.51392 10.6067 8.33203 10.5312C8.15005 10.4558 7.95481 10.4171 7.75781 10.417C7.36014 10.4169 6.97863 10.5744 6.69727 10.8555C6.41593 11.1366 6.2571 11.5183 6.25684 11.916C6.25671 12.2641 6.3781 12.6002 6.59668 12.8672L6.69629 12.9775L9.4541 15.7354C9.60266 15.884 9.77949 16.0016 9.97363 16.082C10.1678 16.1625 10.3758 16.2041 10.5859 16.2041C10.7961 16.2041 11.0041 16.1625 11.1982 16.082C11.3924 16.0016 11.5692 15.884 11.7178 15.7354L17.3037 10.1494C17.585 9.8682 17.743 9.48662 17.7432 9.08887C17.7433 8.69105 17.5849 8.30972 17.3037 8.02832C17.0225 7.74695 16.641 7.58803 16.2432 7.58789Z" stroke="white"/>
</svg>
